PathFileType	4	(X/Y/Z)	C:\Users\86182\Documents\cortex\Trimmed_M1_H16.trc
DataRate	CameraRate	NumFrames	NumMarkers	Units	OrigDataRate	OrigDataStartFrame	OrigNumFrames
100.00	100.00	       154	2	mm	100.00	541	       901
Frame#	Time	gripper			box			
		X1	Y1	Z1	X2	Y2	Z2	

541	5.400	204.46985	209.01723	293.45715	230.58260	205.02296	141.38824	
542	5.410	204.46944	209.01733	293.45703	230.58260	205.02296	141.38824	
543	5.420	204.47128	209.01736	293.45795	230.58260	205.02296	141.38824	
544	5.430	204.47470	209.01732	293.45956	230.58260	205.02296	141.38824	
545	5.440	204.47870	209.01727	293.46149	230.58260	205.02296	141.38826	
546	5.450	204.48245	209.01724	293.46332	230.58260	205.02296	141.38828	
547	5.460	204.48544	209.01721	293.46475	230.58260	205.02296	141.38828	
548	5.470	204.48752	209.01714	293.46570	230.58260	205.02296	141.38828	
549	5.480	204.48865	209.01692	293.46613	230.58260	205.02296	141.38829	
550	5.490	204.48895	209.01654	293.46600	230.58260	205.02296	141.38828	
551	5.500	204.48862	209.01601	293.46552	230.58260	205.02296	141.38828	
552	5.510	204.48790	209.01543	293.46478	230.58260	205.02296	141.38828	
553	5.520	204.48698	209.01492	293.46399	230.58260	205.02296	141.38828	
554	5.530	204.48596	209.01457	293.46326	230.58260	205.02296	141.38829	
555	5.540	204.48480	209.01440	293.46259	230.58260	205.02296	141.38831	
556	5.550	204.48343	209.01439	293.46191	230.58260	205.02296	141.38829	
557	5.560	204.48181	209.01456	293.46124	230.58260	205.02296	141.38828	
558	5.570	204.48007	209.01491	293.46063	230.58260	205.02296	141.38828	
559	5.580	204.47833	209.01537	293.46008	230.58260	205.02296	141.38828	
560	5.590	204.47690	209.01585	293.45969	230.58260	205.02296	141.38828	
561	5.600	204.47623	209.01619	293.45959	230.58260	205.02296	141.38828	
562	5.610	204.47662	209.01624	293.45978	230.58260	205.02296	141.38826	
563	5.620	204.47800	209.01601	293.46030	230.58260	205.02296	141.38824	
564	5.630	204.48000	209.01573	293.46109	230.58260	205.02296	141.38824	
565	5.640	204.48224	209.01566	293.46216	230.58260	205.02296	141.38824	
566	5.650	204.48450	209.01590	293.46341	230.58260	205.02296	141.38828	
567	5.660	204.48650	209.01637	293.46469	230.58260	205.02296	141.38828	
568	5.670	204.48802	209.01686	293.46576	230.58260	205.02296	141.38828	
569	5.680	204.48897	209.01723	293.46646	230.58260	205.02296	141.38828	
570	5.690	204.48935	209.01735	293.46674	230.58260	205.02296	141.38828	
571	5.700	204.48926	209.01724	293.46661	230.58260	205.02296	141.38826	
572	5.710	204.48882	209.01694	293.46619	230.58260	205.02296	141.38824	
573	5.720	204.48819	209.01649	293.46561	230.58260	205.02296	141.38824	
574	5.730	204.48752	209.01604	293.46497	230.58260	205.02296	141.38824	
575	5.740	204.48695	209.01564	293.46445	230.58260	205.02296	141.38824	
576	5.750	204.48659	209.01538	293.46411	230.58260	205.02296	141.38824	
577	5.760	204.48648	209.01534	293.46402	230.58260	205.02296	141.38824	
578	5.770	204.48657	209.01544	293.46411	230.58260	205.02296	141.38823	
579	5.780	204.48668	209.01553	293.46423	230.58260	205.02296	141.38824	
580	5.790	204.48665	209.01550	293.46420	230.58260	205.02296	141.38824	
581	5.800	204.48639	209.01529	293.46393	230.58260	205.02296	141.38828	
582	5.810	204.48601	209.01495	293.46356	230.58260	205.02296	141.38828	
583	5.820	204.48570	209.01469	293.46323	230.58260	205.02296	141.38828	
584	5.830	204.48563	209.01462	293.46313	230.58260	205.02296	141.38828	
585	5.840	204.48578	209.01476	293.46329	230.58260	205.02296	141.38828	
586	5.850	204.48611	209.01505	293.46365	230.58260	205.02296	141.38828	
587	5.860	204.48663	209.01547	293.46417	230.58260	205.02296	141.38828	
588	5.870	204.48720	209.01596	293.46478	230.58260	205.02296	141.38828	
589	5.880	204.48776	209.01643	293.46539	230.58260	205.02296	141.38826	
590	5.890	204.48824	209.01683	293.46588	230.58260	205.02296	141.38828	
591	5.900	204.48854	209.01707	293.46619	230.58260	205.02296	141.38826	
592	5.910	204.48862	209.01715	293.46625	230.58260	205.02296	141.38824	
593	5.920	204.48848	209.01704	293.46613	230.58260	205.02296	141.38824	
594	5.930	204.48820	209.01680	293.46582	230.58260	205.02296	141.38824	
595	5.940	204.48785	209.01651	293.46545	230.58260	205.02296	141.38826	
596	5.950	204.48747	209.01619	293.46506	230.58260	205.02296	141.38826	
597	5.960	204.48709	209.01587	293.46466	230.58260	205.02296	141.38826	
598	5.970	204.48669	209.01553	293.46423	230.58260	205.02296	141.38824	
599	5.980	204.48619	209.01509	293.46371	230.58260	205.02296	141.38824	
600	5.990	204.48544	209.01447	293.46295	230.58260	205.02296	141.38824	
601	6.000	204.48451	209.01369	293.46194	230.58260	205.02296	141.38824	
602	6.010	204.48358	209.01291	293.46100	230.58260	205.02296	141.38824	
603	6.020	204.48300	209.01241	293.46033	230.58260	205.02296	141.38824	
604	6.030	204.48297	209.01239	293.46030	230.58260	205.02296	141.38826	
605	6.040	204.48354	209.01286	293.46088	230.58260	205.02296	141.38828	
606	6.050	204.48450	209.01367	293.46191	230.58260	205.02296	141.38828	
607	6.060	204.48557	209.01457	293.46304	230.58260	205.02296	141.38828	
608	6.070	204.48654	209.01540	293.46405	230.58260	205.02296	141.38831	
609	6.080	204.48732	209.01607	293.46490	230.58260	205.02296	141.38831	
610	6.090	204.48793	209.01657	293.46552	230.58260	205.02296	141.38831	
611	6.100	204.48843	209.01700	293.46606	230.58260	205.02296	141.38829	
612	6.110	204.48888	209.01736	293.46655	230.58260	205.02296	141.38829	
613	6.120	204.48920	209.01764	293.46689	230.58260	205.02296	141.38828	
614	6.130	204.48929	209.01770	293.46698	230.58260	205.02296	141.38828	
615	6.140	204.48894	209.01741	293.46661	230.58260	205.02296	141.38828	
616	6.150	204.48796	209.01660	293.46558	230.58260	205.02296	141.38828	
617	6.160	204.48621	209.01512	293.46375	230.58260	205.02296	141.38828	
618	6.170	204.48364	209.01295	293.46106	230.58260	205.02296	141.38828	
619	6.180	204.48041	209.01025	293.45767	230.58260	205.02296	141.38828	
620	6.190	204.47693	209.00732	293.45404	230.58260	205.02296	141.38828	
621	6.200	204.47375	209.00465	293.45068	230.58260	205.02296	141.38828	
622	6.210	204.47145	209.00272	293.44830	230.58260	205.02296	141.38828	
623	6.220	204.47049	209.00191	293.44727	230.58260	205.02296	141.38828	
624	6.230	204.47104	209.00237	293.44785	230.58260	205.02296	141.38828	
625	6.240	204.47296	209.00398	293.44986	230.58260	205.02296	141.38828	
626	6.250	204.47585	209.00641	293.45288	230.58260	205.02296	141.38826	
627	6.260	204.47913	209.00917	293.45633	230.58260	205.02296	141.38824	
628	6.270	204.48215	209.01170	293.45947	230.58260	205.02296	141.38826	
629	6.280	204.48444	209.01361	293.46185	230.58260	205.02296	141.38824	
630	6.290	204.48578	209.01471	293.46326	230.58260	205.02296	141.38824	
631	6.300	204.48621	209.01501	293.46368	230.58260	205.02296	141.38824	
632	6.310	204.48595	209.01474	293.46338	230.58260	205.02296	141.38824	
633	6.320	204.48538	209.01421	293.46274	230.58260	205.02296	141.38824	
634	6.330	204.48500	209.01382	293.46231	230.58260	205.02296	141.38826	
635	6.340	204.48506	209.01385	293.46234	230.58260	205.02296	141.38828	
636	6.350	204.48541	209.01421	293.46274	230.58260	205.02296	141.38828	
637	6.360	204.48572	209.01465	293.46317	230.58260	205.02296	141.38828	
638	6.370	204.48572	209.01506	293.46344	230.58260	205.02296	141.38828	
639	6.380	204.48540	209.01544	293.46356	230.58260	205.02296	141.38828	
640	6.390	204.48473	209.01582	293.46347	230.58260	205.02296	141.38828	
641	6.400	204.48364	209.01614	293.46313	230.58260	205.02296	141.38828	
642	6.410	204.48218	209.01627	293.46252	230.58260	205.02296	141.38828	
643	6.420	204.48058	209.01611	293.46164	230.58260	205.02296	141.38828	
644	6.430	204.47926	209.01559	293.46069	230.58260	205.02296	141.38828	
645	6.440	204.47868	209.01486	293.45990	230.58260	205.02296	141.38828	
646	6.450	204.47910	209.01425	293.45972	230.58260	205.02296	141.38828	
647	6.460	204.48038	209.01404	293.46017	230.58260	205.02296	141.38828	
648	6.470	204.48212	209.01422	293.46115	230.58260	205.02296	141.38826	
649	6.480	204.48384	209.01457	293.46222	230.58260	205.02296	141.38824	
650	6.490	204.48506	209.01479	293.46295	230.58260	205.02296	141.38824	
651	6.500	204.48552	209.01462	293.46307	230.58260	205.02296	141.38824	
652	6.510	204.48515	209.01395	293.46243	230.58260	205.02296	141.38824	
653	6.520	204.48412	209.01291	293.46124	230.58260	205.02296	141.38824	
654	6.530	204.48285	209.01178	293.45987	230.58260	205.02296	141.38824	
655	6.540	204.48186	209.01097	293.45883	230.58260	205.02296	141.38824	
656	6.550	204.48148	209.01076	293.45850	230.58260	205.02296	141.38826	
657	6.560	204.48178	209.01125	293.45898	230.58260	205.02296	141.38828	
658	6.570	204.48260	209.01233	293.46008	230.58260	205.02296	141.38828	
659	6.580	204.48360	209.01375	293.46152	230.58260	205.02296	141.38828	
660	6.590	204.48442	209.01524	293.46292	230.58260	205.02296	141.38828	
661	6.600	204.48486	209.01663	293.46408	230.58260	205.02296	141.38824	
662	6.610	204.48491	209.01778	293.46484	230.58260	205.02296	141.38824	
663	6.620	204.48466	209.01851	293.46524	230.58260	205.02296	141.38823	
664	6.630	204.48441	209.01874	293.46527	230.58260	205.02296	141.38821	
665	6.640	204.48433	209.01840	293.46503	230.58260	205.02296	141.38823	
666	6.650	204.48442	209.01765	293.46457	230.58260	205.02296	141.38824	
667	6.660	204.48450	209.01663	293.46393	230.58260	205.02296	141.38824	
668	6.670	204.48445	209.01555	293.46317	230.58260	205.02296	141.38824	
669	6.680	204.48434	209.01460	293.46249	230.58260	205.02296	141.38828	
670	6.690	204.48431	209.01395	293.46204	230.58260	205.02296	141.38828	
671	6.700	204.48448	209.01367	293.46191	230.58260	205.02296	141.38828	
672	6.710	204.48488	209.01379	293.46222	230.58260	205.02296	141.38828	
673	6.720	204.48544	209.01421	293.46277	230.58260	205.02296	141.38828	
674	6.730	204.48599	209.01474	293.46338	230.58260	205.02296	141.38826	
675	6.740	204.48634	209.01518	293.46387	230.58260	205.02296	141.38824	
676	6.750	204.48636	209.01543	293.46405	230.58260	205.02296	141.38824	
677	6.760	204.48602	209.01546	293.46390	230.58260	205.02296	141.38824	
678	6.770	204.48544	209.01532	293.46350	230.58260	205.02296	141.38824	
679	6.780	204.48480	209.01518	293.46310	230.58260	205.02296	141.38824	
680	6.790	204.48428	209.01521	293.46286	230.58260	205.02296	141.38824	
681	6.800	204.48410	209.01553	293.46298	230.58260	205.02296	141.38824	
682	6.810	204.48438	209.01613	293.46350	230.58260	205.02296	141.38824	
683	6.820	204.48505	209.01680	293.46429	230.58260	205.02296	141.38824	
684	6.830	204.48596	209.01732	293.46509	230.58260	205.02296	141.38828	
685	6.840	204.48682	209.01755	293.46564	230.58260	205.02296	141.38828	
686	6.850	204.48737	209.01743	293.46582	230.58260	205.02296	141.38828	
687	6.860	204.48741	209.01698	293.46555	230.58260	205.02296	141.38828	
688	6.870	204.48692	209.01624	293.46478	230.58260	205.02296	141.38828	
689	6.880	204.48593	209.01524	293.46365	230.58260	205.02296	141.38828	
690	6.890	204.48448	209.01404	293.46216	230.58260	205.02296	141.38828	
691	6.900	204.48274	209.01274	293.46045	230.58260	205.02296	141.38828	
692	6.910	204.48099	209.01151	293.45880	230.58260	205.02296	141.38828	
693	6.920	204.47949	209.01051	293.45740	230.58260	205.02296	141.38826	
694	6.930	204.47849	209.00998	293.45657	230.58260	205.02296	141.38824	
